<svg xmlns="http://www.w3.org/2000/svg" width="18" height="18" viewBox="0 0 23.536 33.583"><path d="M76.252,9.365a83.129,83.129,0,0,0-6.4-9.01.964.964,0,0,0-1.494,0,83.228,83.228,0,0,0-6.4,9.012C58.9,14.432,57.34,18.621,57.34,21.815a11.768,11.768,0,0,0,23.536,0C80.876,18.618,79.32,14.43,76.252,9.365ZM70.723,29.248a8.563,8.563,0,0,1-2.12.265c-4.4,0-7.973-3.323-7.973-7.407a9.468,9.468,0,0,1,.773-3.424.5.5,0,0,1,.577-.289.465.465,0,0,1,.381.495,7.452,7.452,0,0,0-.045.8,8.957,8.957,0,0,0,8.331,8.657.478.478,0,0,1,.44.422A.464.464,0,0,1,70.723,29.248Z" transform="translate(-57.34 0)" fill="#c3d1eb"/></svg>