<svg xmlns="http://www.w3.org/2000/svg" width="20" height="20" viewBox="0 0 34 34"><g transform="translate(-0.072)"><g transform="translate(0.072)" fill="#fff" stroke="#c3d1eb" stroke-width="0.7"><circle cx="17" cy="17" r="17" stroke="none"/><circle cx="17" cy="17" r="16.65" fill="none"/></g><path d="M14.575,9.053a3.323,3.323,0,0,1,1.836.036,6.2,6.2,0,0,0,1.371.192,3.588,3.588,0,0,0,1.907-.557,3.768,3.768,0,0,0,1.74-2.767,4.431,4.431,0,0,0-1.392-3.683A5.532,5.532,0,0,0,16.1.649a5.687,5.687,0,0,0-4.045,1.682A8.246,8.246,0,0,0,9.8,7.833a1.974,1.974,0,0,1-.755-.94,3.124,3.124,0,0,1,.035-1.836,3.991,3.991,0,0,0-.365-3.277A3.791,3.791,0,0,0,5.472.011a4.567,4.567,0,0,0-3.208,1.42,5.653,5.653,0,0,0,.057,7.985,8.372,8.372,0,0,0,5.5,2.262,1.97,1.97,0,0,1-.934.747,3.3,3.3,0,0,1-1.836-.036A6.205,6.205,0,0,0,3.676,12.2a3.588,3.588,0,0,0-1.907.557,3.769,3.769,0,0,0-1.74,2.767A4.431,4.431,0,0,0,1.421,19.2a5.532,5.532,0,0,0,3.94,1.625,5.687,5.687,0,0,0,4.045-1.682,8.247,8.247,0,0,0,2.254-5.5,1.976,1.976,0,0,1,.755.94,3.123,3.123,0,0,1-.036,1.836,3.991,3.991,0,0,0,.365,3.277,3.791,3.791,0,0,0,3.242,1.768,4.567,4.567,0,0,0,3.208-1.42,5.653,5.653,0,0,0-.058-7.985,8.37,8.37,0,0,0-5.5-2.262A1.968,1.968,0,0,1,14.575,9.053Zm-2.93,2.6a1.326,1.326,0,0,1-1.831,0,1.295,1.295,0,1,1,1.831,0Z" transform="translate(6.063 6.519)" fill="#c3d1eb"/></g></svg>