<svg width="31" height="28" viewBox="0 0 31 28" fill="none" xmlns="http://www.w3.org/2000/svg">
<path fill-rule="evenodd" clip-rule="evenodd" d="M14.6437 0.466423C14.9964 0.177859 15.5036 0.177859 15.8563 0.466423L29.8988 11.9558C30.3081 12.2906 30.3684 12.8938 30.0335 13.3031C29.6987 13.7123 29.0955 13.7727 28.6862 13.4378L26.4202 11.5838V20.6527C26.4202 21.6903 26.4202 22.5273 26.3648 23.205C26.3078 23.9029 26.1874 24.5158 25.8984 25.0829C25.4394 25.9837 24.7071 26.716 23.8063 27.175C23.2392 27.4639 22.6263 27.5844 21.9285 27.6414C21.2507 27.6968 20.4138 27.6968 19.3761 27.6968H11.1239C10.0862 27.6968 9.24929 27.6968 8.57154 27.6414C7.87371 27.5844 7.26076 27.4639 6.69368 27.175C5.7929 26.716 5.06055 25.9837 4.60158 25.0829C4.31264 24.5158 4.19218 23.9029 4.13517 23.205C4.07979 22.5273 4.0798 21.6903 4.07981 20.6526V11.5838L1.81376 13.4378C1.40451 13.7727 0.801297 13.7123 0.466452 13.3031C0.131607 12.8938 0.191929 12.2906 0.601183 11.9558L14.6437 0.466423ZM5.9947 10.017V20.6117C5.9947 21.6999 5.99544 22.4585 6.0437 23.0491C6.09104 23.6285 6.17929 23.9614 6.30776 24.2135C6.58314 24.754 7.02255 25.1934 7.56302 25.4688C7.81517 25.5973 8.14806 25.6855 8.72748 25.7329C9.1819 25.77 9.73579 25.779 10.4628 25.7812V19.0798C10.4628 16.4358 12.6061 14.2925 15.25 14.2925C17.8939 14.2925 20.0372 16.4358 20.0372 19.0798V25.7812C20.7642 25.779 21.3181 25.77 21.7725 25.7329C22.3519 25.6855 22.6848 25.5973 22.937 25.4688C23.4774 25.1934 23.9169 24.754 24.1922 24.2135C24.3207 23.9614 24.409 23.6285 24.4563 23.0491C24.5046 22.4585 24.5053 21.6999 24.5053 20.6117V10.017L15.25 2.44452L5.9947 10.017ZM18.1223 25.7819V19.0798C18.1223 17.4934 16.8363 16.2074 15.25 16.2074C13.6637 16.2074 12.3777 17.4934 12.3777 19.0798V25.7819H18.1223Z" fill="#000928"/>
</svg>

