<?xml version="1.0" standalone="no"?>
<!DOCTYPE svg PUBLIC "-//W3C//DTD SVG 20010904//EN"
 "http://www.w3.org/TR/2001/REC-SVG-20010904/DTD/svg10.dtd">
<svg version="1.0" xmlns="http://www.w3.org/2000/svg"
 width="512.000000pt" height="512.000000pt" viewBox="0 0 512.000000 512.000000"
 preserveAspectRatio="xMidYMid meet">

<g transform="translate(0.000000,512.000000) scale(0.100000,-0.100000)"
fill="#000000" stroke="none">
<path d="M3390 4499 c-697 -96 -1090 -198 -1422 -372 -143 -74 -289 -184 -364
-275 -61 -74 -128 -199 -148 -277 l-12 -50 -98 -12 c-581 -73 -1001 -407
-1232 -981 -224 -556 -107 -1078 323 -1444 284 -240 679 -402 1148 -470 142
-21 601 -17 745 6 428 67 789 229 1044 467 194 182 307 363 350 562 6 26 9 27
64 27 31 0 104 7 162 15 638 86 1032 434 1146 1012 24 124 25 428 1 579 -97
616 -526 1072 -1137 1209 -119 27 -390 29 -570 4z m535 -202 c255 -60 444
-163 621 -341 146 -147 244 -302 303 -485 67 -205 87 -496 50 -721 -37 -223
-150 -439 -299 -573 -185 -166 -463 -271 -775 -293 l-94 -7 -6 29 c-61 273
-225 511 -525 764 -114 96 -281 223 -343 260 -67 41 -145 14 -163 -54 -11 -47
14 -83 105 -148 343 -245 586 -498 676 -703 61 -138 71 -308 25 -428 -59 -155
-246 -370 -426 -490 -307 -204 -687 -307 -1133 -307 -568 0 -1097 180 -1416
482 -193 182 -289 367 -317 610 -26 219 46 508 191 769 103 188 235 334 398
442 223 149 431 212 693 211 216 0 345 -30 551 -125 102 -47 108 -49 145 -37
70 23 92 121 37 164 -77 61 -319 153 -475 180 -54 10 -98 22 -98 27 0 34 77
163 135 225 241 261 740 430 1625 551 166 23 411 22 515 -2z"/>
<path d="M3513 4105 c-66 -28 -81 -122 -26 -165 23 -18 40 -20 147 -20 216 0
391 -55 547 -171 159 -118 273 -300 313 -504 13 -65 22 -85 46 -107 43 -39 91
-38 132 3 30 29 31 32 25 100 -3 38 -17 106 -31 152 -111 360 -425 641 -796
711 -104 20 -312 21 -357 1z"/>
<path d="M3046 3429 c-70 -82 12 -195 111 -154 45 19 67 57 60 103 -9 52 -46
82 -102 82 -36 0 -47 -5 -69 -31z"/>
<path d="M2370 3177 c-58 -29 -66 -103 -16 -153 50 -50 121 -42 152 17 46 91
-45 182 -136 136z"/>
<path d="M1360 3113 c-124 -13 -290 -73 -413 -148 -175 -106 -367 -325 -367
-419 0 -75 88 -122 148 -80 12 8 40 42 62 74 123 181 291 299 510 356 44 12
106 18 190 18 145 1 216 -15 353 -75 120 -54 170 -50 202 16 20 43 19 53 -5
92 -33 54 -209 130 -370 159 -69 12 -228 16 -310 7z"/>
<path d="M4014 2950 c-33 -13 -54 -50 -54 -96 0 -35 5 -47 31 -68 68 -58 169
-10 169 80 0 37 -59 94 -96 93 -16 0 -39 -4 -50 -9z"/>
<path d="M2063 2220 c-26 -11 -53 -59 -53 -96 0 -41 59 -94 105 -94 81 0 126
103 72 165 -24 29 -86 42 -124 25z"/>
<path d="M1003 2109 c-60 -31 -68 -130 -14 -169 67 -47 161 -4 161 74 0 70
-86 125 -147 95z"/>
<path d="M2675 1567 c-17 -14 -28 -36 -32 -63 -5 -36 -1 -46 25 -75 26 -29 37
-34 77 -34 60 0 95 35 95 96 0 85 -101 131 -165 76z"/>
<path d="M1610 1433 c-72 -27 -78 -143 -9 -178 45 -24 87 -19 120 14 75 76
-10 201 -111 164z"/>
</g>
</svg>
