<svg width="26" height="28" viewBox="0 0 26 28" fill="none" xmlns="http://www.w3.org/2000/svg">
<path d="M19 14C22.866 14 26 10.866 26 7C26 3.13401 22.866 0 19 0C15.134 0 12 3.13401 12 7C12 8.00577 12.2121 8.962 12.5941 9.82639L9.76488 12.0269C8.75635 10.7899 7.22042 10 5.5 10C2.46243 10 0 12.4624 0 15.5C0 18.5376 2.46243 21 5.5 21C7.07412 21 8.49378 20.3387 9.49635 19.2788L14.2711 21.958C14.0957 22.439 14 22.9583 14 23.5C14 25.9853 16.0147 28 18.5 28C20.9853 28 23 25.9853 23 23.5C23 21.0147 20.9853 19 18.5 19C17.2789 19 16.1714 19.4864 15.3606 20.276L10.5861 17.597C10.8529 16.9507 11 16.2425 11 15.5C11 14.9091 10.9068 14.34 10.7344 13.8065L13.6625 11.5291C14.9465 13.0408 16.8612 14 19 14ZM19 12C16.2386 12 14 9.76142 14 7C14 4.23858 16.2386 2 19 2C21.7614 2 24 4.23858 24 7C24 9.76142 21.7614 12 19 12ZM5.5 19C3.567 19 2 17.433 2 15.5C2 13.567 3.567 12 5.5 12C7.433 12 9 13.567 9 15.5C9 17.433 7.433 19 5.5 19ZM21 23.5C21 24.8807 19.8807 26 18.5 26C17.1193 26 16 24.8807 16 23.5C16 22.1193 17.1193 21 18.5 21C19.8807 21 21 22.1193 21 23.5Z" fill="#212121"/>
</svg>
