<svg width="24" height="20" viewBox="0 0 24 20" fill="none" xmlns="http://www.w3.org/2000/svg">
<path fill-rule="evenodd" clip-rule="evenodd" d="M3 1V8C3 8.6 3.4 9 4 9C4.6 9 5 8.6 5 8V1C5 0.4 4.6 0 4 0C3.4 0 3 0.4 3 1ZM11 10C11 9.4 11.4 9 12 9C12.6 9 13 9.4 13 10V19C13 19.6 12.6 20 12 20C11.4 20 11 19.6 11 19V10ZM20 11C20.6 11 21 10.6 21 10V1C21 0.4 20.6 0 20 0C19.4 0 19 0.4 19 1V10C19 10.6 19.4 11 20 11ZM0 12C0 11.4 0.4 11 1 11H7C7.6 11 8 11.4 8 12C8 12.6 7.6 13 7 13H5V19C5 19.6 4.6 20 4 20C3.4 20 3 19.6 3 19V13H1C0.4 13 0 12.6 0 12ZM15 5H13V1C13 0.4 12.6 0 12 0C11.4 0 11 0.4 11 1V5H9C8.4 5 8 5.4 8 6C8 6.6 8.4 7 9 7H15C15.6 7 16 6.6 16 6C16 5.4 15.6 5 15 5ZM16 14C16 13.4 16.4 13 17 13H23C23.6 13 24 13.4 24 14C24 14.6 23.6 15 23 15H21V19C21 19.6 20.6 20 20 20C19.4 20 19 19.6 19 19V15H17C16.4 15 16 14.6 16 14Z" fill="black"/>
</svg>
