<?xml version="1.0" standalone="no"?>
<!DOCTYPE svg PUBLIC "-//W3C//DTD SVG 20010904//EN"
 "http://www.w3.org/TR/2001/REC-SVG-20010904/DTD/svg10.dtd">
<svg version="1.0" xmlns="http://www.w3.org/2000/svg"
 width="512.000000pt" height="512.000000pt" viewBox="0 0 512.000000 512.000000"
 preserveAspectRatio="xMidYMid meet">

<g transform="translate(0.000000,512.000000) scale(0.100000,-0.100000)"
fill="#000000" stroke="none">
<path d="M2320 5105 c-69 -7 -155 -18 -192 -25 l-68 -12 0 -1031 0 -1032 -668
668 -668 668 -65 -73 c-72 -81 -141 -166 -154 -187 -5 -9 146 -167 531 -552
l539 -539 -767 0 -767 0 -5 -32 c-43 -267 -42 -559 2 -823 l17 -100 998 -3
c548 -1 997 -5 997 -10 0 -4 -288 -295 -641 -648 l-640 -641 78 -69 c43 -38
102 -89 131 -113 l54 -44 514 514 514 514 0 -742 0 -741 58 -11 c31 -6 139
-18 240 -28 161 -15 204 -15 355 -4 95 7 204 18 242 24 l70 12 3 975 2 975
645 -645 645 -644 41 39 c64 62 190 207 187 216 -2 5 -238 244 -525 532 -288
288 -523 526 -523 530 0 3 350 6 777 7 428 0 781 4 784 8 11 12 39 205 50 343
13 174 3 391 -27 577 l-5 32 -1022 0 -1022 0 678 678 677 677 -67 66 c-38 36
-96 89 -131 119 l-64 53 -549 -549 -549 -549 -2 795 -3 794 -72 12 c-199 34
-423 40 -633 19z"/>
<path d="M3250 4420 c0 -330 3 -600 8 -600 4 0 188 181 410 403 l403 403 -68
46 c-162 108 -307 187 -465 252 -86 35 -262 96 -279 96 -5 0 -9 -231 -9 -600z"/>
<path d="M1720 4976 c-202 -71 -375 -156 -560 -277 l-123 -81 399 -399 c219
-219 400 -399 401 -399 2 0 3 268 3 595 0 470 -3 595 -12 594 -7 0 -56 -15
-108 -33z"/>
<path d="M4255 3620 l-400 -400 588 0 c361 0 587 4 587 9 0 18 -68 217 -105
306 -45 112 -140 292 -211 402 -30 45 -55 83 -57 83 -1 0 -182 -180 -402 -400z"/>
<path d="M394 3917 c-116 -186 -201 -367 -268 -576 -20 -61 -36 -113 -36 -116
0 -3 258 -5 572 -5 l573 0 -390 390 c-214 215 -392 390 -395 390 -3 0 -28 -37
-56 -83z"/>
<path d="M120 1795 c0 -24 95 -259 150 -370 56 -113 188 -334 219 -367 3 -4
175 161 381 367 l375 375 -563 0 c-309 0 -562 -2 -562 -5z"/>
<path d="M4235 1420 c209 -209 381 -380 383 -380 12 0 176 271 232 385 55 111
150 346 150 370 0 3 -258 5 -572 5 l-573 0 380 -380z"/>
<path d="M1466 831 l-369 -369 84 -54 c111 -71 231 -136 354 -190 107 -48 293
-113 301 -106 2 3 3 249 2 546 l-3 542 -369 -369z"/>
<path d="M3250 652 c0 -315 4 -552 9 -552 17 0 236 78 321 115 131 56 420 218
420 235 0 3 -169 174 -375 380 l-375 375 0 -553z"/>
</g>
</svg>
