<svg width="30" height="24" viewBox="0 0 30 24" fill="none" xmlns="http://www.w3.org/2000/svg">
<path d="M16.4987 5.99944C21.2522 5.99944 23.9488 9.14588 24.341 12.9457L24.461 12.9457C27.5201 12.9457 30 15.4192 30 18.4704C30 21.5216 27.5201 23.9951 24.461 23.9951H8.53633C5.47722 23.9951 2.99731 21.5216 2.99731 18.4704C2.99731 15.4192 5.47721 12.9457 8.53636 12.9457L8.6563 12.9457C9.05076 9.12091 11.7451 5.99944 16.4987 5.99944ZM16.4987 7.87113C13.3024 7.87113 10.5164 10.4575 10.5164 14.03C10.5164 14.5961 10.0242 15.0403 9.46067 15.0403L8.39506 15.0402C6.4492 15.0402 4.87176 16.6259 4.87176 18.5818C4.87176 20.5378 6.4492 22.1234 8.39506 22.1234H24.6023C26.5481 22.1234 28.1256 20.5378 28.1256 18.5818C28.1256 16.6259 26.5481 15.0402 24.6023 15.0402L23.5366 15.0403C22.9731 15.0403 22.4809 14.5961 22.4809 14.03C22.4809 10.4117 19.695 7.87113 16.4987 7.87113ZM3.52874 12.2208C3.71356 12.667 3.52646 13.1744 3.11018 13.3986L3.02391 13.4395L1.29002 14.161C0.814059 14.3581 0.268398 14.1321 0.0712496 13.6561C-0.113577 13.2099 0.0735219 12.7024 0.489809 12.4783L0.57608 12.4374L2.30997 11.7159C2.78593 11.5188 3.33159 11.7448 3.52874 12.2208ZM13.2802 4.98858L13.2345 5.00328C12.5408 5.22976 11.8962 5.52987 11.306 5.89604C10.3247 5.48086 9.18352 5.44412 8.12093 5.88426C6.01584 6.75622 5.01618 9.1696 5.88814 11.2747C5.97328 11.4803 6.07312 11.6753 6.18593 11.859C5.61678 12.0624 5.08157 12.3379 4.59105 12.6744C4.45853 12.4472 4.34 12.2084 4.23659 11.9588C2.98682 8.94157 4.41962 5.48249 7.43684 4.23272C9.45052 3.39862 11.661 3.75939 13.2802 4.98858ZM1.1822 5.12351L1.27746 5.15785L3.01685 5.8996C3.48927 6.09922 3.71587 6.64628 3.52297 7.12148C3.34293 7.56501 2.86109 7.78919 2.41355 7.65481L2.31829 7.62047L0.578905 6.87872C0.106482 6.6791 -0.120116 6.13205 0.0727844 5.65684C0.252825 5.21331 0.734661 4.98913 1.1822 5.12351ZM6.70937 0.492533L6.75053 0.579252L7.47098 2.30897C7.66915 2.7874 7.44196 3.3359 6.96353 3.53407C6.515 3.71986 6.00489 3.53179 5.77959 3.11334L5.73843 3.02662L5.01797 1.2969C4.8198 0.818468 5.04699 0.269972 5.52543 0.0717995C5.97395 -0.113987 6.48406 0.0740835 6.70937 0.492533ZM13.4967 0.0723946C13.9481 0.259357 14.1782 0.754791 14.044 1.21321L14.0097 1.31075L13.266 3.01779C13.0657 3.5014 12.5113 3.73105 12.0277 3.53073C11.5763 3.34377 11.3462 2.84834 11.4803 2.38992L11.5147 2.29238L12.2584 0.585337C12.4587 0.10173 13.0131 -0.127922 13.4967 0.0723946Z" fill="#212121"/>
</svg>
